<svg width="16" height="18" viewBox="0 0 16 18" fill="none" xmlns="http://www.w3.org/2000/svg">
<path d="M10.5031 13.5563C9.40623 13.5563 8.50623 14.4844 8.50623 15.6094C8.50623 16.7344 9.40623 17.6625 10.5031 17.6625C11.6 17.6625 12.5 16.7344 12.5 15.6094C12.5281 14.4844 11.6281 13.5563 10.5031 13.5563ZM10.5031 16.6781C9.9406 16.6781 9.4906 16.2 9.4906 15.6094C9.4906 15.0188 9.9406 14.5406 10.5031 14.5406C11.0656 14.5406 11.5156 15.0188 11.5156 15.6094C11.5437 16.2 11.0656 16.6781 10.5031 16.6781Z" fill="black"/>
<path d="M4.11873 13.5563C3.02186 13.5563 2.12186 14.4844 2.12186 15.6094C2.12186 16.7344 3.02186 17.6625 4.11873 17.6625C5.21561 17.6625 6.1156 16.7344 6.1156 15.6094C6.14373 14.4844 5.24373 13.5563 4.11873 13.5563ZM4.11873 16.6781C3.55623 16.6781 3.10623 16.2 3.10623 15.6094C3.10623 15.0188 3.55623 14.5406 4.11873 14.5406C4.68123 14.5406 5.13123 15.0188 5.13123 15.6094C5.15936 16.2 4.68123 16.6781 4.11873 16.6781Z" fill="black"/>
<path d="M15.2562 0.365601H13.4562C13.0344 0.365601 12.6687 0.674976 12.6125 1.09685L12.1062 4.80935H1.05312C0.799991 4.80935 0.574991 4.92185 0.434366 5.11873C0.293741 5.3156 0.237491 5.56873 0.293741 5.79373V5.82185L2.00937 11.1375C2.09374 11.475 2.40312 11.7281 2.79687 11.7281H11.0937C11.7125 11.7281 12.2187 11.2781 12.3031 10.6594L13.5969 1.32185H15.2844C15.5656 1.32185 15.7906 1.09685 15.7906 0.815601C15.7906 0.534351 15.5375 0.365601 15.2562 0.365601ZM11.2906 10.5187C11.2625 10.6312 11.1781 10.7437 11.0375 10.7437H2.88124L1.27812 5.79373H11.9375L11.2906 10.5187Z" fill="black"/>
</svg>
