<svg width="18" height="18" viewBox="0 0 18 18" fill="none" xmlns="http://www.w3.org/2000/svg">
<path d="M9 16.7063C8.6625 16.7063 8.29687 16.5938 8.04375 16.3407C7.39687 15.7782 6.75 15.2438 6.18749 14.7657C4.52812 13.3594 3.09374 12.15 2.08124 10.9407C0.899994 9.5344 0.337494 8.1844 0.337494 6.69378C0.337494 5.23127 0.843744 3.88128 1.77187 2.8969C2.69999 1.8844 3.99374 1.3219 5.39999 1.3219C6.44062 1.3219 7.425 1.6594 8.26875 2.30627C8.52187 2.50315 8.775 2.72815 9 2.98127C9.225 2.72815 9.47812 2.50315 9.73125 2.30627C10.575 1.6594 11.5312 1.3219 12.6 1.3219C14.0062 1.3219 15.2719 1.8844 16.2281 2.8969C17.1562 3.88128 17.6625 5.23127 17.6625 6.69378C17.6625 8.1844 17.1 9.5344 15.9187 10.9407C14.9062 12.15 13.4719 13.3594 11.8125 14.7657C11.25 15.2438 10.6031 15.7782 9.95625 16.3407C9.70312 16.5657 9.3375 16.7063 9 16.7063ZM5.39999 2.27815C4.27499 2.27815 3.23437 2.72815 2.50312 3.54378C1.74374 4.3594 1.34999 5.45628 1.34999 6.66565C1.34999 7.90315 1.82812 9.05628 2.84062 10.2938C3.79687 11.4469 5.20312 12.6282 6.83437 14.0063C7.39687 14.4844 8.04375 15.0188 8.69062 15.6094C8.85937 15.75 9.14062 15.75 9.30937 15.6094C9.98437 15.0469 10.6031 14.4844 11.1656 14.0063C12.7969 12.6282 14.2031 11.4469 15.1594 10.2938C16.1719 9.05628 16.65 7.90315 16.65 6.66565C16.65 5.45628 16.2281 4.3594 15.4969 3.54378C14.7375 2.72815 13.725 2.27815 12.6 2.27815C11.7562 2.27815 10.9969 2.53127 10.35 3.06565C10.0687 3.26252 9.84375 3.51565 9.59062 3.7969C9.45 3.96565 9.225 4.07815 9 4.07815C8.775 4.07815 8.55 3.96565 8.40937 3.7969C8.18437 3.51565 7.93125 3.26252 7.65 3.06565C7.00312 2.5594 6.24375 2.27815 5.39999 2.27815Z" fill="black"/>
</svg>
