<svg width="18" height="11" viewBox="0 0 18 11" fill="none" xmlns="http://www.w3.org/2000/svg">
<path d="M9 4.03125C7.90312 4.03125 7.03125 4.93125 7.03125 6C7.03125 7.06875 7.93125 7.96875 9 7.96875C10.0687 7.96875 10.9687 7.06875 10.9687 6C10.9687 4.93125 10.0969 4.03125 9 4.03125ZM9 6.98438C8.46562 6.98438 8.01562 6.53437 8.01562 6C8.01562 5.46563 8.46562 5.01562 9 5.01562C9.53437 5.01562 9.98437 5.46563 9.98437 6C9.98437 6.53437 9.53437 6.98438 9 6.98438Z" fill="black"/>
<path d="M17.55 5.66252C15.6938 2.73752 12.4875 0.993774 9.00001 0.993774C5.51251 0.993774 2.30626 2.73752 0.450006 5.66252C0.337506 5.8594 0.337506 6.11252 0.450006 6.3094C2.30626 9.2344 5.51251 10.9781 9.00001 10.9781C12.4875 10.9781 15.6938 9.2344 17.55 6.3094C17.6906 6.11252 17.6906 5.8594 17.55 5.66252ZM9.00001 9.99377C5.93438 9.99377 3.09376 8.50315 1.40626 5.9719C3.09376 3.46877 5.93438 1.97815 9.00001 1.97815C12.0656 1.97815 14.9063 3.46877 16.5938 5.9719C14.9063 8.50315 12.0656 9.99377 9.00001 9.99377Z" fill="black"/>
</svg>
