<svg width="14" height="14" viewBox="0 0 14 14" fill="none" xmlns="http://www.w3.org/2000/svg">
<path fill-rule="evenodd" clip-rule="evenodd" d="M5.26011 0.709672C5.42418 0.592276 5.64101 0.579283 5.81793 0.676247C6.36505 0.976111 7.11162 1.51574 7.66878 2.39758C8.23233 3.28955 8.58065 4.49878 8.3704 6.08824C8.36792 6.10692 8.36708 6.12078 8.36701 6.1308C8.39188 6.13515 8.43911 6.13756 8.51055 6.11638C8.71513 6.05574 9.0141 5.81549 8.98191 5.24969C8.969 5.02281 9.10353 4.81338 9.31523 4.73078C9.52693 4.64818 9.76774 4.71115 9.9119 4.88682C10.6705 5.81122 11.5449 7.35629 11.6287 8.98487C11.6712 9.81141 11.5097 10.6679 11.0168 11.4625C10.5246 12.2559 9.72554 12.9494 8.55616 13.4914C8.34079 13.5913 8.08523 13.5342 7.93284 13.3522C7.78044 13.1702 7.76914 12.9086 7.90526 12.7141C8.16042 12.3495 8.49802 11.3819 7.78263 10.4877C7.77357 10.4764 7.76499 10.4647 7.7569 10.4527C7.72897 10.4111 7.70498 10.3827 7.66756 10.3383C7.64268 10.3088 7.61185 10.2722 7.56997 10.22C7.48161 10.11 7.37429 9.96243 7.29509 9.76543C7.24413 9.63868 7.20935 9.50349 7.19192 9.35711C6.91138 9.58569 6.63848 9.86799 6.42308 10.1986C5.99211 10.8601 5.78035 11.7249 6.22346 12.8179C6.30383 13.0161 6.25588 13.2433 6.10225 13.3922C5.94862 13.541 5.72004 13.5818 5.52443 13.4952C4.5723 13.0738 3.33289 12.1561 2.75582 10.7397C2.1606 9.27867 2.3204 7.41543 3.94634 5.2475L3.94635 5.2475C4.52867 4.47108 5.35446 2.9815 5.04841 1.22684C5.01375 1.0281 5.09603 0.827068 5.26011 0.709672ZM8.36939 6.15334C8.36923 6.15353 8.36861 6.15217 8.36805 6.14867C8.36928 6.1514 8.36956 6.15315 8.36939 6.15334ZM6.16051 2.2103C6.09609 3.85062 5.31815 5.16843 4.78634 5.8775C3.32846 7.82135 3.30265 9.29894 3.72822 10.3435C3.99147 10.9897 4.4462 11.5175 4.93745 11.9129C4.87355 11.0264 5.13336 10.2547 5.54333 9.62542C6.12601 8.73108 7.00048 8.13587 7.63633 7.85267C7.82496 7.76866 8.04532 7.80303 8.19941 7.94048C8.3535 8.07794 8.41271 8.29295 8.3507 8.48991C8.17684 9.04217 8.22823 9.27159 8.26931 9.37376C8.29317 9.43312 8.32875 9.48797 8.38867 9.56259C8.39895 9.57538 8.4134 9.59265 8.43052 9.6131C8.48174 9.6743 8.55679 9.76397 8.61495 9.84738C9.15479 10.5302 9.29861 11.2402 9.25663 11.8548C9.6419 11.5533 9.92327 11.2334 10.1246 10.9089C10.4869 10.3249 10.6135 9.68805 10.5801 9.03881C10.5329 8.12094 10.1655 7.19677 9.71828 6.44071C9.48966 6.78537 9.16024 7.01896 8.80896 7.12308C8.48507 7.21909 8.09696 7.21394 7.77833 7.00887C7.42503 6.78149 7.27218 6.38359 7.32946 5.95055C7.50845 4.59745 7.20956 3.63656 6.7811 2.95842C6.59482 2.66357 6.38001 2.41603 6.16051 2.2103Z" fill="white"/>
</svg>
