<svg width="40" height="40" viewBox="0 0 40 40" fill="none" xmlns="http://www.w3.org/2000/svg">
<path fill-rule="evenodd" clip-rule="evenodd" d="M8.33333 6C7.04467 6 6 7.04467 6 8.33333V31.6667C6 32.9553 7.04467 34 8.33333 34H31.6667C32.9553 34 34 32.9553 34 31.6667V8.33333C34 7.04467 32.9553 6 31.6667 6H8.33333ZM4 8.33333C4 5.9401 5.9401 4 8.33333 4H31.6667C34.0599 4 36 5.9401 36 8.33333V31.6667C36 34.0599 34.0599 36 31.6667 36H8.33333C5.9401 36 4 34.0599 4 31.6667V8.33333Z" fill="#100C46"/>
<path fill-rule="evenodd" clip-rule="evenodd" d="M4 15C4 14.4477 4.44772 14 5 14H35C35.5523 14 36 14.4477 36 15C36 15.5523 35.5523 16 35 16H5C4.44772 16 4 15.5523 4 15Z" fill="#100C46"/>
<path fill-rule="evenodd" clip-rule="evenodd" d="M15 14C15.5523 14 16 14.4477 16 15V35C16 35.5523 15.5523 36 15 36C14.4477 36 14 35.5523 14 35V15C14 14.4477 14.4477 14 15 14Z" fill="#100C46"/>
</svg>
