<svg width="40" height="40" viewBox="0 0 40 40" fill="none" xmlns="http://www.w3.org/2000/svg">
<path fill-rule="evenodd" clip-rule="evenodd" d="M18.3333 6C11.5218 6 6 11.5218 6 18.3333C6 25.1448 11.5218 30.6667 18.3333 30.6667C25.1448 30.6667 30.6667 25.1448 30.6667 18.3333C30.6667 11.5218 25.1448 6 18.3333 6ZM4 18.3333C4 10.4173 10.4173 4 18.3333 4C26.2494 4 32.6667 10.4173 32.6667 18.3333C32.6667 26.2494 26.2494 32.6667 18.3333 32.6667C10.4173 32.6667 4 26.2494 4 18.3333Z" fill="#100C46"/>
<path fill-rule="evenodd" clip-rule="evenodd" d="M27.0429 27.0429C27.4334 26.6524 28.0666 26.6524 28.4571 27.0429L35.7071 34.2929C36.0976 34.6834 36.0976 35.3166 35.7071 35.7071C35.3166 36.0976 34.6834 36.0976 34.2929 35.7071L27.0429 28.4571C26.6524 28.0666 26.6524 27.4334 27.0429 27.0429Z" fill="#100C46"/>
</svg>
