<svg width="40" height="40" viewBox="0 0 40 40" fill="none" xmlns="http://www.w3.org/2000/svg">
<path fill-rule="evenodd" clip-rule="evenodd" d="M18.7665 7.43208C19.113 7.5986 19.3333 7.94898 19.3333 8.33338V31.6667C19.3333 32.0511 19.113 32.4015 18.7665 32.568C18.42 32.7345 18.0088 32.6877 17.7086 32.4476L9.6492 26.0001H3.33331C2.78103 26.0001 2.33331 25.5523 2.33331 25.0001V15.0001C2.33331 14.4478 2.78103 14.0001 3.33331 14.0001H9.6492L17.7086 7.55251C18.0088 7.31238 18.42 7.26556 18.7665 7.43208ZM17.3333 10.414L10.6247 15.7809C10.4474 15.9228 10.2271 16.0001 9.99998 16.0001H4.33331V24.0001H9.99998C10.2271 24.0001 10.4474 24.0773 10.6247 24.2192L17.3333 29.5861V10.414Z" fill="#100C46"/>
<path fill-rule="evenodd" clip-rule="evenodd" d="M31.0763 7.50946C31.4669 7.119 32.1 7.11909 32.4905 7.50967C35.8025 10.8227 37.6631 15.3154 37.6631 20C37.6631 24.6846 35.8025 29.1774 32.4905 32.4903C32.1 32.8809 31.4669 32.881 31.0763 32.4906C30.6857 32.1001 30.6856 31.4669 31.0761 31.0763C34.0131 28.1384 35.6631 24.1542 35.6631 20C35.6631 15.8458 34.0131 11.8616 31.0761 8.92367C30.6856 8.53309 30.6857 7.89993 31.0763 7.50946ZM25.193 13.3928C25.5835 13.0023 26.2167 13.0024 26.6072 13.393C28.3569 15.1433 29.3399 17.5168 29.3399 19.9917C29.3399 22.4665 28.3569 24.8401 26.6072 26.5903C26.2167 26.9809 25.5835 26.981 25.193 26.5906C24.8024 26.2001 24.8023 25.5669 25.1927 25.1763C26.5675 23.8011 27.3399 21.9362 27.3399 19.9917C27.3399 18.0471 26.5675 16.1822 25.1927 14.807C24.8023 14.4164 24.8024 13.7833 25.193 13.3928Z" fill="#100C46"/>
</svg>
