<svg width="139" height="26" viewBox="0 0 139 26" fill="none" xmlns="http://www.w3.org/2000/svg">
<path d="M0 25.2934H9.58868C15.0134 25.2934 17.6737 22.529 17.6737 18.8392C17.6737 15.2536 15.1291 13.1485 12.6076 13.0212V12.7899C14.9209 12.2463 16.7484 10.627 16.7484 7.74689C16.7484 4.21909 14.2037 1.60505 9.06818 1.60505H0V25.2934ZM4.29119 21.7077V14.7678H9.02192C11.6707 14.7678 13.3131 16.3871 13.3131 18.5038C13.3131 20.3891 12.0177 21.7077 8.90625 21.7077H4.29119ZM4.29119 11.6795V5.14442H8.62866C11.1502 5.14442 12.4572 6.47457 12.4572 8.30209C12.4572 10.3841 10.7685 11.6795 8.53612 11.6795H4.29119Z" fill="#212B36"/>
<path d="M32.5454 17.8214C32.5454 20.5279 30.6138 21.8697 28.7631 21.8697C26.7506 21.8697 25.4088 20.447 25.4088 18.1915V7.52713H21.2217V18.8392C21.2217 23.1073 23.6507 25.5247 27.1438 25.5247C29.8041 25.5247 31.6779 24.1251 32.4876 22.1357H32.6726V25.2934H36.7325V7.52713H32.5454V17.8214Z" fill="#212B36"/>
<path d="M55.08 12.2232C54.5016 9.21584 52.0958 7.2958 47.9318 7.2958C43.6522 7.2958 40.7374 9.40091 40.749 12.6858C40.7374 15.2767 42.3336 16.9886 45.7457 17.6941L48.7762 18.3303C50.4071 18.6889 51.1705 19.3481 51.1705 20.3544C51.1705 21.5689 49.8519 22.4827 47.8624 22.4827C45.9424 22.4827 44.6932 21.6499 44.3346 20.0537L40.2516 20.447C40.7721 23.7087 43.5134 25.6404 47.874 25.6404C52.3156 25.6404 55.4501 23.3386 55.4617 19.9727C55.4501 17.4397 53.8192 15.8897 50.4649 15.1611L47.4345 14.5133C45.6301 14.1085 44.913 13.4839 44.9245 12.4545C44.913 11.2516 46.2431 10.4188 47.9897 10.4188C49.9213 10.4188 50.9391 11.4713 51.263 12.6395L55.08 12.2232Z" fill="#212B36"/>
<path d="M58.9143 25.2934H63.1014V7.52713H58.9143V25.2934ZM61.0194 5.00562C62.3495 5.00562 63.4368 3.98776 63.4368 2.73857C63.4368 1.47782 62.3495 0.459961 61.0194 0.459961C59.6777 0.459961 58.5904 1.47782 58.5904 2.73857C58.5904 3.98776 59.6777 5.00562 61.0194 5.00562Z" fill="#212B36"/>
<path d="M71.5941 14.8835C71.5941 12.3157 73.144 10.8352 75.3533 10.8352C77.5162 10.8352 78.8117 12.2578 78.8117 14.629V25.2934H82.9987V13.9813C83.0103 9.72477 80.5813 7.2958 76.9147 7.2958C74.2544 7.2958 72.4269 8.56812 71.6173 10.546H71.4091V7.52713H67.407V25.2934H71.5941V14.8835Z" fill="#212B36"/>
<path d="M95.1205 25.6404C99.2613 25.6404 102.107 23.6162 102.847 20.5279L98.9375 20.0884C98.3707 21.5921 96.9827 22.3786 95.1783 22.3786C92.4718 22.3786 90.6789 20.5973 90.6442 17.5553H103.02V16.2714C103.02 10.0371 99.2729 7.2958 94.9007 7.2958C89.8115 7.2958 86.4919 11.0318 86.4919 16.5143C86.4919 22.0894 89.7652 25.6404 95.1205 25.6404ZM90.6558 14.7331C90.783 12.466 92.4602 10.5576 94.9586 10.5576C97.3644 10.5576 98.9837 12.3157 99.0069 14.7331H90.6558Z" fill="#212B36"/>
<path d="M120.605 12.2232C120.026 9.21584 117.62 7.2958 113.456 7.2958C109.177 7.2958 106.262 9.40091 106.274 12.6858C106.262 15.2767 107.858 16.9886 111.27 17.6941L114.301 18.3303C115.932 18.6889 116.695 19.3481 116.695 20.3544C116.695 21.5689 115.376 22.4827 113.387 22.4827C111.467 22.4827 110.218 21.6499 109.859 20.0537L105.776 20.447C106.297 23.7087 109.038 25.6404 113.399 25.6404C117.84 25.6404 120.975 23.3386 120.986 19.9727C120.975 17.4397 119.344 15.8897 115.989 15.1611L112.959 14.5133C111.155 14.1085 110.438 13.4839 110.449 12.4545C110.438 11.2516 111.768 10.4188 113.514 10.4188C115.446 10.4188 116.464 11.4713 116.788 12.6395L120.605 12.2232Z" fill="#212B36"/>
<path d="M138.481 12.2232C137.902 9.21584 135.496 7.2958 131.333 7.2958C127.053 7.2958 124.138 9.40091 124.15 12.6858C124.138 15.2767 125.734 16.9886 129.146 17.6941L132.177 18.3303C133.808 18.6889 134.571 19.3481 134.571 20.3544C134.571 21.5689 133.253 22.4827 131.263 22.4827C129.343 22.4827 128.094 21.6499 127.735 20.0537L123.652 20.447C124.173 23.7087 126.914 25.6404 131.275 25.6404C135.716 25.6404 138.851 23.3386 138.862 19.9727C138.851 17.4397 137.22 15.8897 133.866 15.1611L130.835 14.5133C129.031 14.1085 128.314 13.4839 128.325 12.4545C128.314 11.2516 129.644 10.4188 131.39 10.4188C133.322 10.4188 134.34 11.4713 134.664 12.6395L138.481 12.2232Z" fill="#212B36"/>
</svg>
